HIERARCHY
ROOT hip
{
  OFFSET 0 0 0
  CHANNELS 6 Xposition Yposition Zposition Zrotation Yrotation Xrotation
  JOINT abdomen
  {
    OFFSET 0 20.6881 -0.73152
    CHANNELS 3 Zrotation Xrotation Yrotation
    JOINT chest
    {
      OFFSET 0 11.7043 -0.48768
      CHANNELS 3 Zrotation Xrotation Yrotation
      JOINT neck
      {
        OFFSET 0 22.1894 -2.19456
        CHANNELS 3 Zrotation Xrotation Yrotation
        JOINT head
        {
          OFFSET -0.24384 7.07133 1.2192
          CHANNELS 3 Zrotation Xrotation Yrotation
          JOINT leftEye
          {
            OFFSET 4.14528 8.04674 8.04672
            CHANNELS 3 Zrotation Xrotation Yrotation
            End Site
            {
              OFFSET 1 0 0
            }
          }
          JOINT rightEye
          {
            OFFSET -3.6576 8.04674 8.04672
            CHANNELS 3 Zrotation Xrotation Yrotation
            End Site
            {
              OFFSET 1 0 0
            }
          }
        }
      }
      JOINT rCollar
      {
        OFFSET -2.68224 19.2634 -4.8768
        CHANNELS 3 Zrotation Xrotation Yrotation
        JOINT rShldr
        {
          OFFSET -8.77824 -1.95073 1.46304
          CHANNELS 3 Zrotation Xrotation Yrotation
          JOINT rForeArm
          {
            OFFSET -28.1742 -1.7115 0.48768
            CHANNELS 3 Zrotation Xrotation Yrotation
            JOINT rHand
            {
              OFFSET -22.5879 0.773209 7.07136
              CHANNELS 3 Zrotation Xrotation Yrotation
              JOINT rThumb1
              {
                OFFSET -1.2192 -0.487915 3.41376
                CHANNELS 3 Zrotation Xrotation Yrotation
                JOINT rThumb2
                {
                  OFFSET -3.37035 -0.52449 3.41376
                  CHANNELS 3 Zrotation Xrotation Yrotation
                  End Site
                  {
                    OFFSET -1.78271 -1.18214 1.43049
                  }
                }
              }
              JOINT rIndex1
              {
                OFFSET -7.75947 0.938293 5.60832
                CHANNELS 3 Zrotation Xrotation Yrotation
                JOINT rIndex2
                {
                  OFFSET -2.54057 -0.884171 1.56538
                  CHANNELS 3 Zrotation Xrotation Yrotation
                  End Site
                  {
                    OFFSET -1.62519 -0.234802 1.16502
                  }
                }
              }
              JOINT rMid1
              {
                OFFSET -8.24714 1.18213 3.41376
                CHANNELS 3 Zrotation Xrotation Yrotation
                JOINT rMid2
                {
                  OFFSET -3.10165 -0.590103 1.0647
                  CHANNELS 3 Zrotation Xrotation Yrotation
                  End Site
                  {
                    OFFSET -2.48547 -0.328903 0.83742
                  }
                }
              }
              JOINT rRing1
              {
                OFFSET -8.82822 0.546677 1.51678
                CHANNELS 3 Zrotation Xrotation Yrotation
                JOINT rRing2
                {
                  OFFSET -2.60934 -0.819778 -0.0198488
                  CHANNELS 3 Zrotation Xrotation Yrotation
                  End Site
                  {
                    OFFSET -2.33842 -0.294052 0.168128
                  }
                }
              }
              JOINT rPinky1
              {
                OFFSET -8.27202 -0.0477905 -0.4584
                CHANNELS 3 Zrotation Xrotation Yrotation
                JOINT rPinky2
                {
                  OFFSET -1.82734 -0.647385 -0.700984
                  CHANNELS 3 Zrotation Xrotation Yrotation
                  End Site
                  {
                    OFFSET -1.69225 -0.51767 -0.607171
                  }
                }
              }
            }
          }
        }
      }
      JOINT lCollar
      {
        OFFSET 2.68224 19.2634 -4.8768
        CHANNELS 3 Zrotation Xrotation Yrotation
        JOINT lShldr
        {
          OFFSET 8.77824 -1.95073 1.46304
          CHANNELS 3 Zrotation Xrotation Yrotation
          JOINT lForeArm
          {
            OFFSET 28.1742 -1.7115 0.48768
            CHANNELS 3 Zrotation Xrotation Yrotation
            JOINT lHand
            {
              OFFSET 22.5879 0.773209 7.07136
              CHANNELS 3 Zrotation Xrotation Yrotation
              JOINT lThumb1
              {
                OFFSET 1.2192 -0.487915 3.41376
                CHANNELS 3 Zrotation Xrotation Yrotation
                JOINT lThumb2
                {
                  OFFSET 3.37035 -0.52449 3.41376
                  CHANNELS 3 Zrotation Xrotation Yrotation
                  End Site
                  {
                    OFFSET 1.78271 -1.18214 1.43049
                  }
                }
              }
              JOINT lIndex1
              {
                OFFSET 7.75947 0.938293 5.60832
                CHANNELS 3 Zrotation Xrotation Yrotation
                JOINT lIndex2
                {
                  OFFSET 2.54057 -0.884171 1.56538
                  CHANNELS 3 Zrotation Xrotation Yrotation
                  End Site
                  {
                    OFFSET 1.62519 -0.234802 1.16502
                  }
                }
              }
              JOINT lMid1
              {
                OFFSET 8.24714 1.18213 3.41376
                CHANNELS 3 Zrotation Xrotation Yrotation
                JOINT lMid2
                {
                  OFFSET 3.10165 -0.590103 1.0647
                  CHANNELS 3 Zrotation Xrotation Yrotation
                  End Site
                  {
                    OFFSET 2.48547 -0.328903 0.83742
                  }
                }
              }
              JOINT lRing1
              {
                OFFSET 8.82822 0.546677 1.51678
                CHANNELS 3 Zrotation Xrotation Yrotation
                JOINT lRing2
                {
                  OFFSET 2.60934 -0.819778 -0.0198488
                  CHANNELS 3 Zrotation Xrotation Yrotation
                  End Site
                  {
                    OFFSET 2.33842 -0.294052 0.168128
                  }
                }
              }
              JOINT lPinky1
              {
                OFFSET 8.27202 -0.0477905 -0.4584
                CHANNELS 3 Zrotation Xrotation Yrotation
                JOINT lPinky2
                {
                  OFFSET 1.82734 -0.647385 -0.700984
                  CHANNELS 3 Zrotation Xrotation Yrotation
                  End Site
                  {
                    OFFSET 1.69225 -0.51767 -0.607171
                  }
                }
              }
            }
          }
        }
      }
    }
  }
  JOINT rButtock
  {
    OFFSET -8.77824 4.35084 1.2192
    CHANNELS 3 Zrotation Xrotation Yrotation
    JOINT rThigh
    {
      OFFSET 0 -1.70687 -2.19456
      CHANNELS 3 Zrotation Xrotation Yrotation
      JOINT rShin
      {
        OFFSET 0 -36.8199 0.73152
        CHANNELS 3 Zrotation Xrotation Yrotation
        JOINT rFoot
        {
          OFFSET 0.73152 -45.1104 -5.12064
          CHANNELS 3 Zrotation Xrotation Yrotation
          End Site
          {
            OFFSET -1.1221 -3.69964 12.103
          }
        }
      }
    }
  }
  JOINT lButtock
  {
    OFFSET 8.77824 4.35084 1.2192
    CHANNELS 3 Zrotation Xrotation Yrotation
    JOINT lThigh
    {
      OFFSET 0 -1.70687 -2.19456
      CHANNELS 3 Zrotation Xrotation Yrotation
      JOINT lShin
      {
        OFFSET 0 -36.8199 0.73152
        CHANNELS 3 Zrotation Xrotation Yrotation
        JOINT lFoot
        {
          OFFSET -0.73152 -45.1104 -5.12064
          CHANNELS 3 Zrotation Xrotation Yrotation
          End Site
          {
            OFFSET 1.1221 -3.69964 12.103
          }
        }
      }
    }
  }
}
MOTION
Frames:	7
Frame Time:	0.03333
47.4952 37.505300000000005 17.7637 -6.451992 1.539582 9.469093 0.412984 16.180543 -10.587717 2.427002 -13.911861 32.136556 5.782919 32.399042 152.562619 -21.636968 35.353144 -107.210431 14.003545 -0.511077 -4.159525 7.939378 -0.022263 -0.320818 -155.984352 -2.819971 161.969739 153.316403 -11.040861 -177.496149 -7.271564 8.456535 107.696408 -4.395862 21.647464 1.613022 7.738154 -7.353671 2.014493 -84.405032 38.231583 83.865504 -176.341387 -52.138976 113.516682 -152.810319 -9.196178 114.788937 -156.105819 -0.719133 141.79767 9.694396 1.989442 2.796141 -82.914955 -73.922026 -101.998766 -153.639837 -0.869121 174.754069 -132.723046 -7.905898 -133.243026 39.029122 79.342689 12.179883 0.122876 0.136121 0.798407 -49.798639 23.717402 -23.488221 -111.62757 55.029897 -94.742033 147.496821 45.093784 -124.600552 -166.351767 -29.966658 -85.593084 -170.437565 -32.190033 -107.487492 0.054702 0.791332 1.000192 -0.64515 2.668422 -2.724159 158.043053 -6.106888 -140.084482 161.54962 -6.910799 -136.169559 -0.421961 44.281438 -1.807822 87.257925 62.896485 -87.602432 22.163987 -37.138021 28.864396 41.038715 87.280333 -73.814458 -0.001789 0.212393 0.482702 -83.441252 -38.687081 94.110589 139.326523 -55.884322 -176.971029 -133.203775 59.901836 -123.004441 -175.989971 72.397769 -0.0 -137.139793 -28.213964 -82.127896 -118.609937 4.950329 -46.467196 -157.260942 26.906271 -132.112605
48.0101 38.3751 17.6146 -7.082049 2.193419 9.717654 0.374952 16.960771 0.0 0.587625 -14.549024 20.857933 8.538127 21.29948 82.71955 -30.4988 -1.009613 -45.471711 14.316919 -0.62515 -4.974516 4.935388 -0.011586 -0.268832 -43.043017 -85.891648 -64.236018 127.667337 59.389648 -101.583555 166.912451 -2.591846 37.075 170.11619 -10.694388 146.352424 169.529193 -24.570163 84.921249 -97.480893 18.057968 24.03119 -10.729861 13.903743 10.785822 -148.789423 11.701878 109.579192 -34.287425 51.671703 31.033759 -82.919083 72.710689 74.340235 -94.906498 -73.965435 -114.814369 -127.530778 -79.659542 -150.131292 -81.256089 -47.596495 -85.409019 -128.461725 61.846242 177.18048 158.759134 -47.827515 -171.417217 63.340555 -42.802774 61.09399 85.390047 32.036719 115.248217 -121.475699 -81.15098 -103.867844 5.794352 7.250733 -1.096403 27.60303 21.102272 -25.171047 13.800048 19.712627 -8.284276 6.314472 7.652477 -1.26264 14.707881 31.997435 -15.432471 163.570258 -21.363115 -152.705734 141.753607 -20.23191 159.512355 74.181778 -57.353154 103.355613 -41.389447 79.319449 -4.121995 163.447201 41.207619 131.50496 5.001314 0.698173 5.043655 -84.707069 -35.266913 -171.262108 -111.442274 -20.172705 -29.336947 -177.652578 32.815352 -90.072631 168.659309 72.414905 11.881181 -137.193446 -28.495533 24.687823 139.093025 52.764953 82.967072 -122.832887 46.486781 -147.406052
48.773300000000006 39.460899999999995 17.5001 -7.357493 1.773163 9.876868 -0.288857 13.454891 154.270337 -6.288628 8.465084 -133.494688 -9.370488 16.424878 -29.618692 26.89891 -14.729565 71.3029 17.413939 -0.910348 -5.939117 5.043279 -0.120843 -2.743449 3.572945 -62.755686 -13.007275 -128.053505 -14.786515 -155.971352 12.444868 61.287674 -146.640078 165.28802 -23.373769 144.196866 8.896551 -9.760461 1.64457 -61.456471 44.260547 59.06683 90.580152 -72.328435 41.743862 -151.524667 -5.968195 113.463787 174.06712 -66.557116 136.213764 4.405653 -0.70345 10.1511 2.289887 -2.445079 4.797154 -75.606753 -78.102 -94.641652 -154.769554 59.36218 -144.882765 -143.886769 22.185572 -127.84838 149.606561 25.597256 -154.638161 41.903071 -5.817024 -12.865623 86.891091 32.228374 113.83887 -116.52255 -81.911083 -98.943052 3.90332 5.960987 -0.569629 6.236317 6.090503 -7.630683 -4.522516 -9.177331 4.734794 7.952669 12.75139 -10.985241 -91.184065 -77.515662 -59.405733 -158.389174 -62.38079 -132.563784 -4.196602 43.758622 0.694583 174.82447 -2.804223 -154.922278 16.190831 -38.758697 26.214048 163.136705 33.985156 158.598607 -138.735257 71.288766 -32.563514 120.683507 -5.094495 -86.983864 -98.659277 -4.572057 134.515364 -31.261104 5.437282 -45.072351 140.703774 68.144412 30.146111 -131.874812 -34.988661 120.380033 122.441949 -46.718694 4.626313 -59.902121 47.284144 -49.089536
49.7604 40.9893 17.505000000000003 -7.7693 2.023372 10.029924 1.484997 18.97302 -0.0 1.103368 -15.22622 19.618901 -14.045235 23.69369 -77.217249 38.097067 11.362264 112.219784 19.405367 -1.154388 -6.743977 3.011974 -0.091086 -3.463529 -6.400291 26.066765 8.326343 -110.889109 21.312934 139.69943 11.630967 31.378205 -142.459213 166.074346 -21.378347 145.173389 -4.103556 2.104411 2.51495 -120.376965 -37.19328 128.894582 -152.406759 -16.749352 118.844485 34.227861 -43.991162 -8.765602 3.023922 -1.209042 0.154599 -170.460812 9.991984 144.034218 -141.29491 12.75217 170.960217 14.517461 -6.332691 -0.338895 23.588542 35.717053 4.426427 -95.507761 -43.654504 -73.900946 83.128615 68.992642 -85.897384 80.491919 27.733264 -74.828716 -167.043085 12.536923 68.310766 15.58468 8.315151 -0.605339 174.8505 -15.335792 -90.182132 -169.653274 -25.82497 -101.725027 -33.855989 -58.950987 3.140074 -9.781384 15.041868 -8.590801 38.118268 48.973493 -35.409875 -72.586362 -82.189726 -35.188604 -3.810117 26.507612 5.731922 87.787787 55.774513 -87.437027 -6.377222 -14.77193 4.830228 14.655903 24.038538 -5.054593 -0.050978 0.918282 3.177626 -72.46485 -36.575649 -63.420256 151.203749 83.357723 -79.963902 -139.202351 52.113419 50.587306 136.530597 67.102502 33.042975 -130.798934 -34.615018 -180.0 -131.018689 -66.93872 58.684343 -69.777867 -8.508644 -16.147704
50.9613 42.859 17.6601 -8.46145 2.652415 10.311438 1.088959 15.592825 145.787546 -8.503938 7.822482 -126.679048 -0.54156 13.955671 30.85791 -8.862395 -25.132013 3.645773 20.724566 -1.002407 -5.477969 1.469003 -0.039321 -3.066395 -148.782886 20.801204 153.46133 -39.216176 24.001615 16.96014 -80.933906 29.176161 -98.806034 39.444738 -58.23577 30.387668 5.363634 -7.071806 1.372868 -109.879005 6.347774 113.686473 -0.410511 -4.778826 -0.287702 11.804351 1.854869 4.264769 27.644049 -60.670608 1.584933 84.261832 -67.692108 64.799994 -71.695463 -76.571624 -91.10815 -143.221525 -78.364174 -160.425181 10.862416 -1.252978 -5.85945 -150.492351 -40.359319 -126.409615 148.617007 29.190213 -153.647306 51.598017 21.501685 -18.182019 27.713697 -12.141413 151.836121 179.181827 -28.46343 -146.544906 -97.74991 -51.826718 -41.49462 151.443925 3.497392 -116.220388 46.582713 40.269154 -35.320517 172.381321 -3.560845 -113.736797 159.707498 -9.779838 -138.543143 158.812385 4.287442 -131.48793 -3.679125 26.23864 4.830029 -29.733666 -53.975686 -33.024947 134.725825 26.294169 148.976032 120.38805 75.930431 166.686459 -0.073805 1.174759 3.595157 -67.898428 -36.460311 -76.432489 -118.033151 66.86175 -36.046855 125.606065 -19.67962 -163.413978 134.096182 67.071762 34.874198 -133.906786 -31.561324 95.002261 103.093955 -24.392217 -78.898263 75.304139 -25.797001 -1.239739
52.4184 45.0214 17.9588 -9.247573 3.482337 10.758067 2.947782 16.136498 161.915703 -5.266651 10.154843 -144.45189 -15.492335 22.210327 -72.322207 39.878629 9.278404 107.070812 21.476697 -0.62725 -3.306605 1.890376 -0.054448 -3.299322 -81.929308 65.315474 86.466437 8.303133 -11.967219 46.405394 18.56267 -54.08757 116.137699 -12.828139 45.147962 6.572994 10.114849 -11.696032 1.704642 5.114643 0.178886 -17.40454 -93.8284 41.352981 74.127305 -68.549984 49.843009 39.180508 10.604489 -17.574754 -2.501852 -14.672399 5.267913 3.83408 -142.549854 -7.674384 -179.213096 13.229634 0.169353 -0.924706 -155.252053 59.35755 -138.3954 -119.410996 -1.912413 -113.457091 28.087369 59.022555 -29.877707 -95.63705 -30.540684 -82.739891 2.853275 -14.650995 -104.595243 7.965249 -18.742218 5.067772 -0.287419 3.814245 0.392335 101.108575 4.645727 -102.110909 18.596592 24.395769 -13.087104 -114.100362 -57.020371 -71.416227 87.178234 55.507798 -81.515846 -151.762613 -76.136724 -110.682366 0.955243 -1.767346 11.112737 34.025355 46.064259 -53.166704 136.971639 57.673339 159.379975 105.298808 0.149256 127.876904 -4.722571 1.223736 -0.0 -57.309268 -39.15783 -45.516868 90.198261 76.400653 7.914762 -98.969279 -56.611198 -179.526329 0.124966 2.060524 -3.471351 109.138873 -56.839452 -153.723486 113.580682 -33.104381 41.867162 -31.831409 9.998324 -122.285073
54.202600000000004 47.3721 18.357499999999998 -9.828021 4.19054 11.412584 4.952139 16.551863 -180.0 -0.666938 11.310824 -164.596979 1.457704 14.275584 44.868522 -18.156489 -22.743984 -12.06817 21.708959 -0.247923 -1.292926 5.135434 -0.241257 -5.375835 10.005977 -43.942412 -3.255199 -16.69347 -71.605674 -62.056689 -135.635467 42.198303 -105.610429 1.796246 5.942555 4.023047 81.8696 -47.567856 34.399038 -119.858663 44.492528 78.96029 49.838448 -70.506786 11.839289 -138.376019 -8.250294 119.315963 -8.77095 31.922917 10.033909 -41.494556 63.373633 21.185389 3.000575 0.896619 0.030628 -158.248144 -29.970398 -179.364533 13.214549 2.301744 -6.853467 -25.098123 -2.894489 9.753607 0.024751 -0.790886 2.184928 -152.386243 -70.078898 -84.504334 -130.72844 -11.063469 5.230275 110.586794 59.505655 -87.567209 -115.570428 -52.427046 -53.89984 161.705214 -62.022627 -158.171251 -7.737662 -7.52946 2.451406 -38.22756 -31.832458 -15.535906 16.343699 34.610928 -18.189695 -2.993416 12.16024 4.529371 145.808038 3.589931 172.150155 2.567577 -23.301263 37.188729 124.745907 -13.360773 138.395509 80.818729 58.746434 -146.335625 -169.553951 74.011907 -10.856569 134.86243 14.816079 13.339253 53.75474 76.752643 5.100396 167.185092 -74.702031 74.75755 -155.131048 73.997192 -16.458899 -156.477888 -16.129869 180.0 179.850912 -76.641787 -101.452506 112.073357 -62.246427 -174.333965
